<?xml version="1.0" standalone="no"?>
<!DOCTYPE svg PUBLIC "-//W3C//DTD SVG 20010904//EN"
 "http://www.w3.org/TR/2001/REC-SVG-20010904/DTD/svg10.dtd">
<svg version="1.0" xmlns="http://www.w3.org/2000/svg"
 width="375.000000pt" height="417.000000pt" viewBox="0 0 375.000000 417.000000"
 preserveAspectRatio="xMidYMid meet">
<metadata>
Created by potrace 1.16, written by Peter Selinger 2001-2019
</metadata>
<g transform="translate(0.000000,417.000000) scale(0.100000,-0.100000)"
fill="#000000" stroke="none">
<path d="M1065 3536 l-820 -474 0 -967 0 -967 185 -107 c102 -58 239 -139 305
-180 195 -121 1155 -671 1170 -671 16 0 878 495 1206 692 123 74 275 163 337
198 l112 64 0 971 0 970 -816 470 c-449 259 -826 471 -838 472 -12 1 -362
-195 -841 -471z m1652 -11 c444 -256 806 -469 803 -473 -4 -8 -288 -182 -295
-182 -3 0 -65 37 -138 81 -211 130 -1167 679 -1182 679 -15 0 -973 -550 -1183
-678 -73 -45 -134 -82 -137 -82 -10 0 -296 178 -296 185 0 6 1599 932 1613
934 3 1 370 -208 815 -464z m-322 -195 c436 -250 778 -452 803 -474 9 -9 12
-169 10 -759 l-3 -747 -152 87 -153 87 0 576 0 576 -112 64 c-62 35 -234 136
-383 225 -148 89 -321 190 -382 225 l-113 64 0 178 0 178 23 -14 c12 -7 220
-127 462 -266z m-323 -194 c89 -51 244 -143 343 -203 99 -60 242 -144 318
-187 75 -43 137 -80 137 -81 0 -1 -62 -38 -137 -81 -76 -42 -145 -82 -153 -87
-11 -6 -100 40 -338 177 -178 102 -330 186 -337 186 -7 0 -159 -84 -337 -186
-238 -137 -327 -183 -338 -177 -8 5 -77 45 -152 87 -76 43 -138 80 -138 81 0
2 46 29 103 61 56 31 224 130 372 219 299 179 477 283 487 284 3 1 80 -41 170
-93z m-1502 -1051 l5 -767 350 -202 c193 -111 424 -247 515 -302 91 -55 227
-136 303 -179 77 -43 141 -83 143 -90 3 -6 3 -86 2 -178 l-3 -167 -480 276
c-264 152 -579 336 -700 408 -121 73 -271 161 -332 196 l-113 64 0 948 0 948
153 -94 152 -93 5 -768z m1972 387 c4 -4 7 -173 6 -375 l-3 -367 -152 87 -153
87 0 196 0 196 -165 94 -165 94 0 178 0 177 312 -179 c171 -99 315 -183 320
-188z m-1312 -386 l5 -388 325 -187 325 -187 3 -178 c1 -98 -1 -176 -5 -173
-5 2 -223 127 -485 278 l-478 274 0 562 0 562 153 -88 152 -87 5 -388z m824
290 c81 -46 146 -88 145 -92 -2 -7 -284 -174 -294 -174 -8 0 -292 166 -296
173 -3 6 274 173 292 176 4 1 73 -37 153 -83z m-176 -281 c9 -8 12 -55 10
-188 l-3 -177 -152 87 -153 87 0 182 0 183 143 -81 c78 -45 148 -86 155 -93z
m-143 -305 c86 -49 163 -90 170 -90 7 0 84 41 170 90 86 50 158 90 160 90 13
0 296 -170 294 -176 -3 -8 -614 -364 -624 -364 -8 0 -621 356 -625 363 -4 6
272 173 291 176 4 1 78 -39 164 -89z m-330 -570 c268 -154 493 -280 500 -280
7 0 233 126 502 281 361 208 492 278 503 272 8 -5 77 -45 153 -88 76 -43 134
-81 130 -85 -4 -4 -152 -89 -328 -190 -176 -101 -378 -219 -450 -263 -129 -79
-503 -297 -510 -297 -7 0 -383 219 -491 285 -60 38 -263 157 -452 266 -189
108 -344 200 -345 203 -2 6 280 173 295 175 3 1 225 -125 493 -279z"/>
</g>
</svg>
